<?xml version="1.0" encoding="utf-8"?>
<!-- Generator: Adobe Illustrator 16.0.0, SVG Export Plug-In . SVG Version: 6.00 Build 0)  -->
<!DOCTYPE svg PUBLIC "-//W3C//DTD SVG 1.1//EN" "http://www.w3.org/Graphics/SVG/1.1/DTD/svg11.dtd">
<svg version="1.1" xmlns="http://www.w3.org/2000/svg" xmlns:xlink="http://www.w3.org/1999/xlink" x="0px" y="0px" width="60px"
	 height="60px" viewBox="0 0 60 60" enable-background="new 0 0 60 60" xml:space="preserve">
<g id="Capa_1" display="none" opacity="0.42">
	<g display="inline">
		<rect x="0.125" y="0.125" fill="#FFFFFF" width="59.75" height="59.75"/>
		<path fill="#FF151F" d="M59.75,0.25v59.5H0.25V0.25H59.75 M60,0H0v60h60V0L60,0z"/>
	</g>
	<g display="inline">
		<rect x="7.625" y="7.625" fill="#FFFFFF" width="44.75" height="44.75"/>
		<path fill="#FF151F" d="M52.25,7.75v44.5H7.75V7.75H52.25 M52.5,7.5h-45v45h45V7.5L52.5,7.5z"/>
	</g>
	<g display="inline">
		<path fill="#FFFFFF" d="M30,52.375C17.662,52.375,7.625,42.338,7.625,30S17.662,7.625,30,7.625S52.375,17.662,52.375,30
			S42.338,52.375,30,52.375z"/>
		<path fill="#FF151F" d="M30,7.75c12.269,0,22.25,9.981,22.25,22.25S42.269,52.25,30,52.25S7.75,42.269,7.75,30
			S17.731,7.75,30,7.75 M30,7.5L30,7.5C17.573,7.5,7.5,17.574,7.5,30l0,0c0,12.426,10.073,22.5,22.5,22.5l0,0
			c12.427,0,22.5-10.074,22.5-22.5l0,0C52.5,17.574,42.427,7.5,30,7.5L30,7.5z"/>
	</g>
</g>
<g id="Capa_2">
	<g>
		<g>
			<g>
				<path fill="#005AD3" d="M51.362,39.703c-0.628,0-1.138,0.509-1.138,1.138v4.348c0,2.509-2.042,4.551-4.551,4.551h-31.04
					c-2.51,0-4.551-2.042-4.551-4.551V40.84c0-0.628-0.51-1.138-1.139-1.138c-0.628,0-1.138,0.509-1.138,1.138v4.348
					c0,3.764,3.062,6.826,6.827,6.826h31.04c3.764,0,6.826-3.062,6.826-6.826V40.84C52.5,40.212,51.99,39.703,51.362,39.703z"/>
			</g>
		</g>
		<g>
			<g>
				<path fill="#005AD3" d="M44.455,44.186H15.853c-0.628,0-1.138,0.509-1.138,1.138c0,0.628,0.509,1.138,1.138,1.138h28.603
					c0.628,0,1.138-0.509,1.138-1.138S45.083,44.186,44.455,44.186z"/>
			</g>
		</g>
		<g>
			<g>
				<path fill="#005AD3" d="M41.669,28.179c-0.419-0.468-1.138-0.509-1.606-0.09l-8.771,7.835v-22.05
					c0-0.628-0.509-1.138-1.138-1.138c-0.628,0-1.138,0.509-1.138,1.138v22.05l-8.771-7.835c-0.468-0.419-1.188-0.378-1.606,0.09
					c-0.418,0.469-0.378,1.188,0.091,1.606l9.53,8.514c0.54,0.482,1.217,0.724,1.895,0.724s1.354-0.241,1.895-0.724l9.53-8.514
					C42.047,29.367,42.088,28.647,41.669,28.179z"/>
			</g>
		</g>
		<path fill="#005AD3" d="M29.016,17.066"/>
	</g>
</g>
</svg>
