<?xml version="1.0" encoding="utf-8"?>
<!-- Generator: Adobe Illustrator 16.0.0, SVG Export Plug-In . SVG Version: 6.00 Build 0)  -->
<!DOCTYPE svg PUBLIC "-//W3C//DTD SVG 1.1//EN" "http://www.w3.org/Graphics/SVG/1.1/DTD/svg11.dtd">
<svg version="1.1" xmlns="http://www.w3.org/2000/svg" xmlns:xlink="http://www.w3.org/1999/xlink" x="0px" y="0px" width="60px"
	 height="60px" viewBox="0 0 60 60" enable-background="new 0 0 60 60" xml:space="preserve">
<g id="Capa_1" display="none" opacity="0.42">
	<g display="inline">
		<rect x="0.125" y="0.125" fill="#FFFFFF" width="59.75" height="59.75"/>
		<path fill="#FF151F" d="M59.75,0.25v59.5H0.25V0.25H59.75 M60,0H0v60h60V0L60,0z"/>
	</g>
	<g display="inline">
		<rect x="7.625" y="7.625" fill="#FFFFFF" width="44.75" height="44.75"/>
		<path fill="#FF151F" d="M52.25,7.75v44.5H7.75V7.75H52.25 M52.5,7.5h-45v45h45V7.5L52.5,7.5z"/>
	</g>
	<g display="inline">
		<path fill="#FFFFFF" d="M30,52.375C17.662,52.375,7.625,42.338,7.625,30S17.662,7.625,30,7.625S52.375,17.662,52.375,30
			S42.338,52.375,30,52.375z"/>
		<path fill="#FF151F" d="M30,7.75c12.269,0,22.25,9.981,22.25,22.25S42.269,52.25,30,52.25S7.75,42.269,7.75,30
			S17.731,7.75,30,7.75 M30,7.5L30,7.5C17.574,7.5,7.5,17.573,7.5,30l0,0c0,12.427,10.074,22.5,22.5,22.5l0,0
			c12.426,0,22.5-10.073,22.5-22.5l0,0C52.5,17.573,42.426,7.5,30,7.5L30,7.5z"/>
	</g>
</g>
<g id="Capa_2">
	<g>
		<g>
			<g>
				<path fill="#005AD3" d="M29.481,8.157c-8.499,0-15.414,6.915-15.414,15.414c0,2.871,0.795,5.674,2.301,8.104l12.235,19.717
					C28.838,51.771,29.25,52,29.695,52c0.003,0,0.007,0,0.01,0c0.448-0.004,0.862-0.24,1.092-0.624L42.72,31.468
					c1.422-2.38,2.174-5.11,2.174-7.896C44.894,15.072,37.979,8.157,29.481,8.157z M40.516,30.148l-10.84,18.1L18.552,30.322
					c-1.253-2.023-1.933-4.358-1.933-6.751c0-7.083,5.779-12.862,12.862-12.862c7.082,0,12.853,5.779,12.853,12.862
					C42.334,25.894,41.699,28.168,40.516,30.148z"/>
			</g>
		</g>
		<g>
			<g>
				<path fill="#005AD3" d="M29.481,15.864c-4.25,0-7.707,3.457-7.707,7.707c0,4.222,3.401,7.706,7.707,7.706
					c4.359,0,7.707-3.53,7.707-7.706C37.188,19.321,33.73,15.864,29.481,15.864z M29.481,28.726c-2.848,0-5.155-2.314-5.155-5.154
					c0-2.833,2.322-5.155,5.155-5.155s5.146,2.322,5.146,5.155C34.627,26.369,32.374,28.726,29.481,28.726z"/>
			</g>
		</g>
	</g>
</g>
</svg>
