<?xml version="1.0" encoding="utf-8"?>
<!-- Generator: Adobe Illustrator 16.0.0, SVG Export Plug-In . SVG Version: 6.00 Build 0)  -->
<!DOCTYPE svg PUBLIC "-//W3C//DTD SVG 1.1//EN" "http://www.w3.org/Graphics/SVG/1.1/DTD/svg11.dtd">
<svg version="1.1" xmlns="http://www.w3.org/2000/svg" xmlns:xlink="http://www.w3.org/1999/xlink" x="0px" y="0px" width="60px"
	 height="60px" viewBox="0 0 60 60" enable-background="new 0 0 60 60" xml:space="preserve">
<g id="Capa_1" display="none" opacity="0.42">
	<g display="inline">
		<rect x="0.125" y="0.125" fill="#FFFFFF" width="59.75" height="59.75"/>
		<path fill="#FF151F" d="M59.75,0.25v59.5H0.25V0.25H59.75 M60,0H0v60h60V0L60,0z"/>
	</g>
	<g display="inline">
		<rect x="7.625" y="7.625" fill="#FFFFFF" width="44.75" height="44.75"/>
		<path fill="#FF151F" d="M52.25,7.75v44.5H7.75V7.75H52.25 M52.5,7.5h-45v45h45V7.5L52.5,7.5z"/>
	</g>
	<g display="inline">
		<path fill="#FFFFFF" d="M30,52.375C17.662,52.375,7.625,42.337,7.625,30S17.662,7.625,30,7.625S52.375,17.663,52.375,30
			S42.338,52.375,30,52.375z"/>
		<path fill="#FF151F" d="M30,7.75c12.269,0,22.25,9.981,22.25,22.25S42.269,52.25,30,52.25S7.75,42.269,7.75,30
			S17.731,7.75,30,7.75 M30,7.5L30,7.5C17.573,7.5,7.5,17.574,7.5,30l0,0c0,12.426,10.073,22.5,22.5,22.5l0,0
			c12.427,0,22.5-10.074,22.5-22.5l0,0C52.5,17.574,42.427,7.5,30,7.5L30,7.5z"/>
	</g>
</g>
<g id="Capa_2">
	<g>
		<path fill="#005AD3" d="M45.802,9.154c-0.751-0.751-1.77-1.173-2.832-1.173h-0.555h-25.67h-5.694
			c-1.411,0-2.557,1.145-2.557,2.557v39.217c0,1.739,1.41,3.148,3.148,3.148h3.27h30.254h4.039c1.819,0,3.295-1.475,3.295-3.295
			V17.654c0-1.153-0.458-2.259-1.273-3.075L45.802,9.154z M40.582,9.815v9.348c0,1.926-1.562,3.487-3.487,3.487H22.343
			c-2.079,0-3.764-1.685-3.764-3.764V9.815H40.582z M16.745,51.07V36.632c0-1.646,1.335-2.981,2.981-2.981h20.637
			c1.64,0,2.969,1.329,2.969,2.969v14.45H16.745z M47.691,51.07h-2.525V36.171c0-2.404-1.949-4.354-4.354-4.354H19.032
			c-2.275,0-4.12,1.845-4.12,4.12V51.07h-1.805c-1.535,0-2.779-1.244-2.779-2.779V11.933c0-1.17,0.948-2.118,2.117-2.118h4.3v9.045
			c0,3.105,2.518,5.623,5.623,5.623h14.643c2.985,0,5.404-2.42,5.404-5.405V9.815l0,0c0.932,0,1.824,0.37,2.482,1.028l4.668,4.668
			c0.705,0.705,1.101,1.661,1.101,2.657v29.926C50.666,49.738,49.334,51.07,47.691,51.07z"/>
		<path fill="#005AD3" d="M38.748,11.648h-5.5v9.168h5.5V11.648z M36.915,18.982h-1.834v-5.5h1.834V18.982z"/>
	</g>
</g>
</svg>
