<?xml version="1.0" encoding="utf-8"?>
<!-- Generator: Adobe Illustrator 16.0.0, SVG Export Plug-In . SVG Version: 6.00 Build 0)  -->
<!DOCTYPE svg PUBLIC "-//W3C//DTD SVG 1.1//EN" "http://www.w3.org/Graphics/SVG/1.1/DTD/svg11.dtd">
<svg version="1.1" xmlns="http://www.w3.org/2000/svg" xmlns:xlink="http://www.w3.org/1999/xlink" x="0px" y="0px" width="60px"
	 height="60px" viewBox="0 0 60 60" enable-background="new 0 0 60 60" xml:space="preserve">
<g id="Capa_1" display="none" opacity="0.42">
	<g display="inline">
		<rect x="0.125" y="0.125" fill="#FFFFFF" width="59.75" height="59.75"/>
		<path fill="#FF151F" d="M59.75,0.25v59.5H0.25V0.25H59.75 M60,0H0v60h60V0L60,0z"/>
	</g>
	<g display="inline">
		<rect x="7.625" y="7.625" fill="#FFFFFF" width="44.75" height="44.75"/>
		<path fill="#FF151F" d="M52.25,7.75v44.5H7.75V7.75H52.25 M52.5,7.5h-45v45h45V7.5L52.5,7.5z"/>
	</g>
	<g display="inline">
		<path fill="#FFFFFF" d="M30,52.375C17.663,52.375,7.625,42.338,7.625,30S17.663,7.625,30,7.625S52.375,17.662,52.375,30
			S42.337,52.375,30,52.375z"/>
		<path fill="#FF151F" d="M30,7.75c12.269,0,22.25,9.981,22.25,22.25S42.269,52.25,30,52.25S7.75,42.269,7.75,30
			S17.731,7.75,30,7.75 M30,7.5L30,7.5C17.574,7.5,7.5,17.573,7.5,30l0,0c0,12.427,10.074,22.5,22.5,22.5l0,0
			c12.426,0,22.5-10.073,22.5-22.5l0,0C52.5,17.573,42.426,7.5,30,7.5L30,7.5z"/>
	</g>
</g>
<g id="Capa_2">
	<g>
		<g>
			<path fill="#005AD3" d="M52.498,44.224c0-0.006,0-0.013-0.001-0.02c-0.002-0.025-0.006-0.052-0.012-0.076
				c0-0.003-0.001-0.005-0.002-0.008c-0.005-0.022-0.012-0.045-0.019-0.067c-0.002-0.006-0.004-0.012-0.006-0.017
				c-0.007-0.021-0.016-0.04-0.025-0.059c-0.001-0.003-0.002-0.007-0.004-0.01l-3.517-6.937V14.209c0-0.702-0.571-1.273-1.273-1.273
				H12.471c-0.702,0-1.273,0.571-1.273,1.273V37.03l-3.517,6.938c-0.002,0.003-0.003,0.007-0.004,0.01
				c-0.009,0.019-0.018,0.038-0.025,0.058c-0.002,0.006-0.004,0.012-0.006,0.018c-0.007,0.022-0.014,0.045-0.019,0.067
				c-0.001,0.003-0.001,0.005-0.002,0.008c-0.005,0.024-0.009,0.05-0.012,0.076c0,0.007,0,0.013-0.001,0.02
				c-0.001,0.014-0.002,0.027-0.002,0.041v1.668c0,0.834,0.678,1.512,1.512,1.512h41.866c0.833,0,1.512-0.678,1.512-1.512v-1.668
				C52.5,44.251,52.499,44.237,52.498,44.224z M12.514,14.251h35.083V36.53H12.514V14.251z M12.26,37.846h35.591l2.921,5.762H36.325
				l-0.725-2.63c-0.148-0.535-0.639-0.909-1.194-0.909h-8.701c-0.556,0-1.046,0.374-1.194,0.909l-0.725,2.63H9.338L12.26,37.846z
				 M34.96,43.607H25.15l0.613-2.224h8.584L34.96,43.607z M51.185,45.933c0,0.108-0.088,0.197-0.197,0.197H9.122
				c-0.108,0-0.197-0.089-0.197-0.197v-1.011h42.26V45.933z"/>
		</g>
	</g>
</g>
</svg>
