<?xml version="1.0" encoding="utf-8"?>
<!-- Generator: Adobe Illustrator 23.0.6, SVG Export Plug-In . SVG Version: 6.00 Build 0)  -->
<svg version="1.1" id="Capa_1" xmlns="http://www.w3.org/2000/svg" xmlns:xlink="http://www.w3.org/1999/xlink" x="0px" y="0px"
	 viewBox="0 0 430.1 295.4" style="enable-background:new 0 0 430.1 295.4;" xml:space="preserve">
<style type="text/css">
	.st0{fill:#ACACAC;}
</style>
<path class="st0" d="M98.2,17.3H151c6.2,0,11.3,4.6,11.9,10.7l3.8,42c0.6,6.8-4.9,12.7-11.9,12.7h-48.7c-5.7,0-10.7-4-11.7-9.6
	l-7.9-42C85.1,23.9,90.7,17.3,98.2,17.3z"/>
<path class="st0" d="M414.1,17.3h-50.7c-5.9,0-10.9,4.6-11.4,10.7l-3.6,42c-0.6,6.8,4.7,12.7,11.4,12.7h46.7c5.5,0,10.2-4,11.2-9.6
	l7.6-42C426.6,23.9,421.2,17.3,414.1,17.3z"/>
<path class="st0" d="M111.8,99.5h48.3c5.7,0,10.4,4,10.9,9.2l3.4,36.1c0.6,5.9-4.5,10.9-10.9,10.9H119c-5.3,0-9.8-3.5-10.7-8.2
	l-7.2-36.1C99.8,105.2,104.9,99.5,111.8,99.5z"/>
<path class="st0" d="M400.7,99.5h-46.4c-5.4,0-9.9,4-10.4,9.2l-3.3,36.1c-0.5,5.9,4.3,10.9,10.4,10.9h42.7c5,0,9.4-3.5,10.3-8.2
	l6.9-36.1C412.2,105.2,407.3,99.5,400.7,99.5z"/>
<path class="st0" d="M122.8,168h44.7c5.2,0,9.6,3.4,10,7.8l3.2,30.6c0.5,5-4.1,9.3-10,9.3h-41.2c-4.9,0-9-2.9-9.9-7l-6.7-30.6
	C111.7,172.9,116.5,168,122.8,168z"/>
<path class="st0" d="M390,168h-42.9c-5,0-9.2,3.4-9.6,7.8l-3.1,30.6c-0.5,5,4,9.3,9.6,9.3h39.5c4.7,0,8.7-2.9,9.5-7l6.4-30.6
	C400.6,172.9,396,168,390,168z"/>
<path class="st0" d="M188.7,17.2l50.5,0c5.1,0,10.3,4.8,10.3,9.9l0.6,44.5c0.1,4.4-4.7,11.1-10.7,11.1h-48.1c-8-1-14.2-7-14.5-14.5
	l-1.6-37.1C174.9,23.6,181,17.2,188.7,17.2z"/>
<path class="st0" d="M195.8,99.1l44.6,0c4.5,0,9.1,4.1,9.1,8.5l0.6,38.4c0.1,3.8-4.2,9.6-9.4,9.6h-42.5c-7.1-0.9-12.6-6-12.8-12.5
	l-1.4-32C183.6,104.6,189,99.1,195.8,99.1z"/>
<path class="st0" d="M323.5,17.2l-48.6,0c-4.9,0-9.9,4.8-10,9.9l-0.6,44.5c-0.1,4.4,4.6,11.1,10.3,11.1l45.1,0c0.8,0,1.6,0,2.3-0.2
	c7.2-1.5,12.5-7.1,12.8-14.3l1.6-37.1C336.8,23.6,330.9,17.2,323.5,17.2z"/>
<path class="st0" d="M316.6,99.1l-42.9,0c-4.4,0-10,5.2-10,9.5l0.7,36.1c-0.1,3.7,0,10.9,10.5,10.8c0,0,35,0.2,40.8,0
	c8.8-0.3,11.3-6.4,12.8-15.4l1.8-30.2C330.5,104,323.2,99.1,316.6,99.1z"/>
<path class="st0" d="M199,169.2l42,0c4.3,0,8.5,3.5,8.6,7.2l0.5,32.4c0.1,3.2-3.9,8.1-8.9,8.1h-40c-6.7-0.8-11.8-5.1-12.1-10.5
	l-1.3-27C187.5,173.9,192.6,169.2,199,169.2z"/>
<path class="st0" d="M312.8,169.2l-40.7,0c-4.1,0-9.5,4.4-9.5,8l0.7,30.5c-0.1,3.1,0,9.2,10,9.2c0,0,33.2,0.1,38.7,0
	c8.3-0.2,10.8-5.4,12.1-13l1.7-25.5C326,173.4,319,169.2,312.8,169.2z"/>
<path class="st0" d="M7.9,12.7c0.6-0.9,1.7-1.3,2.7-1.3H65c2,0,3.7,1.4,4.1,3.3l41.3,206.6c0.3,1.6,1.7,2.8,3.4,2.8l280.6,0.7
	c0.4,0,0.7,0.1,1.1,0.2c2.6,0.9,13.6,5.4,13.6,17.9c0,12.2-7.6,16.9-9.1,17.7c-0.2,0.1-0.4,0.2-0.5,0.3l-3.4,2.6
	c-1.3,1-1.7,2.7-1,4.2c0.2,0.5,0.3,1,0.3,1.5l-0.1,4.5c0,0.3,0,0.5-0.1,0.8c-0.6,2.4-4.5,14.7-19.2,14.7
	c-16.3,0-20.4-15.9-19.9-14.2c0.3,0.8-0.6-2-0.4-4.8c0-0.5,0.1-1,0.2-1.5c0.4-2.1-1.2-4.1-3.4-4.1l-201.6-0.3c-2.2,0-3.8,2-3.4,4.1
	l0.1,0.8c0,0.2,0.1,0.5,0.1,0.8l-0.1,5.6c0,0.3-0.1,0.7-0.2,1c-0.8,2.4-5.1,12.7-19,12.7c-15.7,0-18.6-13.3-18.6-13.3
	s-0.6-2.7-0.5-6c0-0.7,0.2-1.5,0.3-2.1c0.5-2.2-1.1-4.3-3.3-4.3h-5.5c0,0-0.9-0.6-1.7-1.5c-0.9-1-1.8-2.4-1.8-4.1
	c0-1.9,0.1-3.4,1.1-4.6c0.7-0.8,2.4-1.7,2.4-1.7h8.3c0,0,278.2,2,282.4,0.8c4.2-1.1,6.1-4.8,5.6-8.6c-0.4-2.7-2.8-4.6-4.1-5.4
	c-0.5-0.3-1.1-0.5-1.8-0.5c0,0-278.8,0.3-279.1,0.2c-1.2-0.3-5-0.5-8.3-3.4c-3.5-3-4.6-7.8-4.6-8L59.8,26.7
	c-0.6-3.1-3.3-5.3-6.4-5.2L11,22c-0.9,0-1.7-0.3-2.3-0.9c-1-0.9-2.1-2.4-2.1-4.5C6.6,14.9,7.2,13.6,7.9,12.7z"/>
</svg>
