<svg xmlns="http://www.w3.org/2000/svg" width="607.911" height="72.301" viewBox="0 0 607.911 72.301">
  <g id="Grupo_5342" data-name="Grupo 5342" transform="translate(-10501 -382)">
    <rect id="Rectángulo_1682" data-name="Rectángulo 1682" width="332" height="4" rx="2" transform="translate(10520.5 398)" fill="#0b457f"/>
    <rect id="Rectángulo_1684" data-name="Rectángulo 1684" width="190" height="4" rx="2" transform="translate(10881.411 398)" fill="#bababa"/>
    <circle id="Elipse_79" data-name="Elipse 79" cx="17.5" cy="17.5" r="17.5" transform="translate(10520.5 382)" fill="#0b457f"/>
    <circle id="Elipse_79-2" data-name="Elipse 79" cx="17.5" cy="17.5" r="17.5" transform="translate(10639.615 382)" fill="#0b457f"/>
    <circle id="Elipse_79-3" data-name="Elipse 79" cx="17.5" cy="17.5" r="17.5" transform="translate(10751.193 382)" fill="#0b457f"/>
    <circle id="Elipse_79-4" data-name="Elipse 79" cx="17.5" cy="17.5" r="17.5" transform="translate(10849.771 382)" fill="#3772ff"/>
    <circle id="Elipse_79-5" data-name="Elipse 79" cx="17.5" cy="17.5" r="17.5" transform="translate(10941.349 382)" fill="#bababa"/>
    <circle id="Elipse_79-6" data-name="Elipse 79" cx="17.5" cy="17.5" r="17.5" transform="translate(11054.411 382)" fill="#bababa"/>
    <text id="En_trámite" data-name="En trámite" transform="translate(10501 450.301)" fill="#0b457f" font-size="14" font-family="Montserrat-Regular, Montserrat"><tspan x="0" y="0">En trámite</tspan></text>
    <text id="Formalizado" transform="translate(10612.875 450.301)" fill="#0b457f" font-size="14" font-family="Montserrat-Regular, Montserrat"><tspan x="0" y="0">Formalizado</tspan></text>
    <text id="Pagado" transform="translate(10768.117 450.301)" fill="#0b457f" font-size="14" font-family="Montserrat-Regular, Montserrat"><tspan x="-27.146" y="0">Pagado</tspan></text>
    <text id="Autorizado" transform="translate(10867.091 450.301)" fill="#3772ff" font-size="14" font-family="Montserrat-Bold, Montserrat" font-weight="700"><tspan x="-40.299" y="0">Autorizado</tspan></text>
    <text id="En_oficina" data-name="En oficina" transform="translate(10916.911 436.301)" fill="#bababa" font-size="14" font-family="Montserrat-Regular, Montserrat"><tspan x="6.846" y="14">En oficina</tspan></text>
    <text id="Tramitado" transform="translate(11035.911 450.301)" fill="#bababa" font-size="14" font-family="Montserrat-Regular, Montserrat"><tspan x="0" y="0">Tramitado</tspan></text>
  </g>
</svg>
